<?xml version="1.0" encoding="UTF-8"?>
<svg xmlns="http://www.w3.org/2000/svg" stroke="black" stroke-linecap="round" viewBox="0 0 500 400" fill="none" ><g ><line y1="240.000000" x2="50.000000" x1="50.000000" y2="260.000000" ></line>
<line y1="260.000000" x2="38.000000" x1="62.000000" y2="260.000000" ></line>
<clipPath id="rectClip0" ><polygon points="38.000000,260.000000 62.000000,260.000000 62.000000,272.000000 38.000000,272.000000" ></polygon>
</clipPath>
<g clip-path="url(#rectClip0)" ><line y1="260.000000" x2="44.000000" x1="32.000000" y2="272.000000" ></line>
<line y1="260.000000" x2="52.000000" x1="40.000000" y2="272.000000" ></line>
<line y1="260.000000" x2="60.000000" x1="48.000000" y2="272.000000" ></line>
<line y1="260.000000" x2="68.000000" x1="56.000000" y2="272.000000" ></line>
<line y1="260.000000" x2="76.000000" x1="64.000000" y2="272.000000" ></line>
</g>
</g>
<g ><line y1="240.000000" x2="50.000000" x1="50.000000" y2="160.000000" ></line>
<path d="M 50.000000,184.000000 C 41.163440,184.000000 34.000000,191.163440 34.000000,200.000000 C 34.000000,208.836560 41.163440,216.000000 50.000000,216.000000 C 58.836560,216.000000 66.000000,208.836560 66.000000,200.000000 C 66.000000,191.163440 58.836560,184.000000 50.000000,184.000000 " ></path>
<g ><line y1="216.000000" x2="30.000000" x1="30.000000" y2="184.000000" ></line>
<path d="M 27.000000,190.000000 L 30.000000,184.000000 L 33.000000,190.000000 " ></path>
</g>
<text font-size="20.000000" text-anchor="end" stroke="none" y="208.000000" x="24.000000" fill="black" ><tspan dy='0'>Ve</tspan></text>
</g>
<g ><line y1="160.000000" x2="70.000000" x1="50.000000" y2="160.000000" ></line>
<line y1="160.000000" x2="130.000000" x1="110.000000" y2="160.000000" ></line>
<polygon points="70.000000,168.000000 110.000000,168.000000 110.000000,152.000000 70.000000,152.000000 " ></polygon>
<text font-size="20.000000" text-anchor="middle" stroke="none" y="142.000000" x="90.000000" fill="black" ><tspan dy='0'>R</tspan></text>
</g>
<g ><line y1="160.000000" x2="150.000000" x1="130.000000" y2="160.000000" ></line>
<line y1="160.000000" x2="210.000000" x1="190.000000" y2="160.000000" ></line>
<polygon points="150.000000,168.000000 190.000000,168.000000 190.000000,152.000000 150.000000,152.000000 " ></polygon>
<text font-size="20.000000" text-anchor="middle" stroke="none" y="142.000000" x="170.000000" fill="black" ><tspan dy='0'>R</tspan></text>
</g>
<g ><line y1="240.000000" x2="210.000000" x1="210.000000" y2="204.000000" ></line>
<line y1="196.000000" x2="210.000000" x1="210.000000" y2="160.000000" ></line>
<line y1="204.000000" x2="190.000000" x1="230.000000" y2="204.000000" ></line>
<line y1="196.000000" x2="190.000000" x1="230.000000" y2="196.000000" ></line>
<text font-size="20.000000" text-anchor="end" stroke="none" y="208.000000" x="184.000000" fill="black" ><tspan dy='0'>C1</tspan></text>
</g>
<g ><line y1="240.000000" x2="210.000000" x1="210.000000" y2="260.000000" ></line>
<line y1="260.000000" x2="198.000000" x1="222.000000" y2="260.000000" ></line>
<clipPath id="rectClip1" ><polygon points="198.000000,260.000000 222.000000,260.000000 222.000000,272.000000 198.000000,272.000000" ></polygon>
</clipPath>
<g clip-path="url(#rectClip1)" ><line y1="260.000000" x2="204.000000" x1="192.000000" y2="272.000000" ></line>
<line y1="260.000000" x2="212.000000" x1="200.000000" y2="272.000000" ></line>
<line y1="260.000000" x2="220.000000" x1="208.000000" y2="272.000000" ></line>
<line y1="260.000000" x2="228.000000" x1="216.000000" y2="272.000000" ></line>
<line y1="260.000000" x2="236.000000" x1="224.000000" y2="272.000000" ></line>
</g>
</g>
<line y1="160.000000" x2="250.000000" x1="210.000000" y2="160.000000" ></line>
<g ><line y1="200.000000" x2="260.000000" x1="250.000000" y2="200.000000" ></line>
<line y1="160.000000" x2="260.000000" x1="250.000000" y2="160.000000" ></line>
<line y1="180.000000" x2="330.000000" x1="320.000000" y2="180.000000" ></line>
<polygon points="260.000000,210.000000 320.000000,210.000000 320.000000,150.000000 260.000000,150.000000 " ></polygon>
<polygon points="282.000000,152.000000 320.000000,180.000000 282.000000,208.000000 " ></polygon>
<path d="M 275.000000,200.000000 L 265.000000,200.000000 " ></path>
<path d="M 275.000000,160.000000 L 265.000000,160.000000 M 270.000000,165.000000 L 270.000000,155.000000 " ></path>
<text font-size="20.000000" text-anchor="middle" stroke="none" y="188.000000" x="298.000000" fill="black" ></text>
<line y1="210.000000" x2="290.000000" x1="290.000000" y2="220.000000" ></line>
<text font-size="20.000000" text-anchor="middle" stroke="none" y="238.000000" x="290.000000" fill="black" ><tspan dy='0'>-15 V</tspan></text>
<line y1="150.000000" x2="290.000000" x1="290.000000" y2="140.000000" ></line>
<text font-size="20.000000" text-anchor="middle" stroke="none" y="136.000000" x="290.000000" fill="black" ><tspan dy='0'>+15 V</tspan></text>
</g>
<polyline points="130.000000,160.000000 130.000000,80.000000 170.000000,80.000000 " ></polyline>
<g ><line y1="80.000000" x2="206.000000" x1="170.000000" y2="80.000000" ></line>
<line y1="80.000000" x2="250.000000" x1="214.000000" y2="80.000000" ></line>
<line y1="100.000000" x2="206.000000" x1="206.000000" y2="60.000000" ></line>
<line y1="100.000000" x2="214.000000" x1="214.000000" y2="60.000000" ></line>
<text font-size="20.000000" text-anchor="middle" stroke="none" y="50.000000" x="210.000000" fill="black" ><tspan dy='0'>C2</tspan></text>
</g>
<polyline points="250.000000,80.000000 330.000000,80.000000 330.000000,180.000000 " ></polyline>
<g fill="black" ><line y1="180.000000" x2="390.000000" x1="330.000000" y2="180.000000" ></line>
<path d="M 391.000000,180.000000 C 391.000000,179.447716 390.552284,179.000000 390.000000,179.000000 C 389.447716,179.000000 389.000000,179.447716 389.000000,180.000000 C 389.000000,180.552284 389.447716,181.000000 390.000000,181.000000 C 390.552284,181.000000 391.000000,180.552284 391.000000,180.000000 " ></path>
</g>
<g ><line y1="180.000000" x2="350.000000" x1="350.000000" y2="200.000000" ></line>
<line y1="240.000000" x2="350.000000" x1="350.000000" y2="260.000000" ></line>
<polygon points="342.000000,200.000000 342.000000,240.000000 358.000000,240.000000 358.000000,200.000000 " ></polygon>
<text font-size="20.000000" text-anchor="start" stroke="none" y="228.000000" x="364.000000" fill="black" ><tspan dy='0'>(K-1)R0</tspan></text>
</g>
<g ><line y1="260.000000" x2="350.000000" x1="350.000000" y2="280.000000" ></line>
<line y1="320.000000" x2="350.000000" x1="350.000000" y2="340.000000" ></line>
<polygon points="342.000000,280.000000 342.000000,320.000000 358.000000,320.000000 358.000000,280.000000 " ></polygon>
<text font-size="20.000000" text-anchor="start" stroke="none" y="308.000000" x="364.000000" fill="black" ><tspan dy='0'>R0</tspan></text>
</g>
<g ><line y1="340.000000" x2="350.000000" x1="350.000000" y2="360.000000" ></line>
<line y1="360.000000" x2="338.000000" x1="362.000000" y2="360.000000" ></line>
<clipPath id="rectClip2" ><polygon points="338.000000,360.000000 362.000000,360.000000 362.000000,372.000000 338.000000,372.000000" ></polygon>
</clipPath>
<g clip-path="url(#rectClip2)" ><line y1="360.000000" x2="344.000000" x1="332.000000" y2="372.000000" ></line>
<line y1="360.000000" x2="352.000000" x1="340.000000" y2="372.000000" ></line>
<line y1="360.000000" x2="360.000000" x1="348.000000" y2="372.000000" ></line>
<line y1="360.000000" x2="368.000000" x1="356.000000" y2="372.000000" ></line>
<line y1="360.000000" x2="376.000000" x1="364.000000" y2="372.000000" ></line>
</g>
</g>
<polyline points="250.000000,200.000000 250.000000,260.000000 350.000000,260.000000 " ></polyline>
<text font-size="20.000000" text-anchor="start" stroke="none" y="188.000000" x="396.000000" fill="black" ><tspan dy='0'>Vs</tspan></text>
</svg>
